<?xml version="1.0" standalone="no"?>
 <!DOCTYPE svg PUBLIC "-//W3C//DTD SVG 1.1//EN" 
 "http://www.w3.org/Graphics/SVG/1.1/DTD/svg11.dtd"> 
<svg
  xmlns:svg="http://www.w3.org/2000/svg"
  xmlns="http://www.w3.org/2000/svg"
  xmlns:xlink="http://www.w3.org/1999/xlink"
  xmlns:inkscape="http://www.inkscape.org/namespaces/inkscape"
  version="1.1"
  width="7.073cm" height="5.549cm" viewBox="98.925 45.585 70.73 55.49">
<title>SVG Image created as Arduino_Uno-F_SilkS.svg date 2026-04-22T22:42:58 </title>
  <desc>Image generated by PCBNEW </desc>
<g style="fill:#000000; fill-opacity:1.000000;stroke:#000000; stroke-opacity:1.000000;
stroke-linecap:round; stroke-linejoin:round;"
 transform="translate(0 0) scale(1 1)">
</g>
<g style="fill:none; 
stroke:#000000; stroke-width:0.120000; stroke-opacity:1; 
stroke-linecap:round; stroke-linejoin:round;">
<path d="M126.610000 96.130000
L127.940000 96.130000
" />
<path d="M126.610000 97.460000
L126.610000 96.130000
" />
<path d="M129.210000 96.130000
L147.050000 96.130000
" />
<path d="M129.210000 98.790000
L129.210000 96.130000
" />
<path d="M129.210000 98.790000
L147.050000 98.790000
" />
<path d="M147.050000 98.790000
L147.050000 96.130000
" />
<path d="M149.470000 96.130000
L150.800000 96.130000
" />
<path d="M149.470000 97.460000
L149.470000 96.130000
" />
<path d="M152.070000 96.130000
L164.830000 96.130000
" />
<path d="M152.070000 98.790000
L152.070000 96.130000
" />
<path d="M152.070000 98.790000
L164.830000 98.790000
" />
<path d="M164.830000 98.790000
L164.830000 96.130000
" />
<path d="M117.466000 47.870000
L118.796000 47.870000
" />
<path d="M117.466000 49.200000
L117.466000 47.870000
" />
<path d="M120.066000 47.870000
L142.986000 47.870000
" />
<path d="M120.066000 50.530000
L120.066000 47.870000
" />
<path d="M120.066000 50.530000
L142.986000 50.530000
" />
<path d="M142.986000 50.530000
L142.986000 47.870000
" />
<path d="M144.390000 47.870000
L145.720000 47.870000
" />
<path d="M144.390000 49.200000
L144.390000 47.870000
" />
<path d="M146.990000 47.870000
L164.830000 47.870000
" />
<path d="M146.990000 50.530000
L146.990000 47.870000
" />
<path d="M146.990000 50.530000
L164.830000 50.530000
" />
<path d="M164.830000 50.530000
L164.830000 47.870000
" />
</g> 
</svg>
