<?xml version="1.0" standalone="no"?>
 <!DOCTYPE svg PUBLIC "-//W3C//DTD SVG 1.1//EN" 
 "http://www.w3.org/Graphics/SVG/1.1/DTD/svg11.dtd"> 
<svg
  xmlns:svg="http://www.w3.org/2000/svg"
  xmlns="http://www.w3.org/2000/svg"
  xmlns:xlink="http://www.w3.org/1999/xlink"
  xmlns:inkscape="http://www.inkscape.org/namespaces/inkscape"
  version="1.1"
  width="7.073cm" height="5.549cm" viewBox="98.925 45.585 70.73 55.49">
<title>SVG Image created as Arduino_Uno-F_SilkS.svg date 2026-05-06T18:01:50 </title>
  <desc>Image generated by PCBNEW </desc>
<g style="fill:#000000; fill-opacity:1.000000;stroke:#000000; stroke-opacity:1.000000;
stroke-linecap:round; stroke-linejoin:round;"
 transform="translate(0 0) scale(1 1)">
</g>
<g style="fill:none; 
stroke:#000000; stroke-width:0.150000; stroke-opacity:1; 
stroke-linecap:round; stroke-linejoin:round;">
<text x="137.172000" y="54.386000"
textLength="2.250000" font-size="1.333333" lengthAdjust="spacingAndGlyphs"
text-anchor="middle" opacity="0" stroke-opacity="0">U1</text>
<g class="stroked-text"><desc>U1</desc>
<path d="M136.410095 53.340819
L136.410095 54.150342
" />
<path d="M136.410095 54.150342
L136.457714 54.245580
" />
<path d="M136.457714 54.245580
L136.505333 54.293200
" />
<path d="M136.505333 54.293200
L136.600571 54.340819
" />
<path d="M136.600571 54.340819
L136.791047 54.340819
" />
<path d="M136.791047 54.340819
L136.886285 54.293200
" />
<path d="M136.886285 54.293200
L136.933904 54.245580
" />
<path d="M136.933904 54.245580
L136.981523 54.150342
" />
<path d="M136.981523 54.150342
L136.981523 53.340819
" />
<path d="M137.981523 54.340819
L137.410095 54.340819
" />
<path d="M137.695809 54.340819
L137.695809 53.340819
" />
<path d="M137.695809 53.340819
L137.600571 53.483676
" />
<path d="M137.600571 53.483676
L137.505333 53.578914
" />
<path d="M137.505333 53.578914
L137.410095 53.626533
" />
</g></g>
<g style="fill:none; 
stroke:#000000; stroke-width:0.120000; stroke-opacity:1; 
stroke-linecap:round; stroke-linejoin:round;">
<path d="M126.610000 96.130000
L127.940000 96.130000
" />
<path d="M126.610000 97.460000
L126.610000 96.130000
" />
<path d="M129.210000 96.130000
L147.050000 96.130000
" />
<path d="M129.210000 98.790000
L129.210000 96.130000
" />
<path d="M129.210000 98.790000
L147.050000 98.790000
" />
<path d="M147.050000 98.790000
L147.050000 96.130000
" />
<path d="M149.470000 96.130000
L150.800000 96.130000
" />
<path d="M149.470000 97.460000
L149.470000 96.130000
" />
<path d="M152.070000 96.130000
L164.830000 96.130000
" />
<path d="M152.070000 98.790000
L152.070000 96.130000
" />
<path d="M152.070000 98.790000
L164.830000 98.790000
" />
<path d="M164.830000 98.790000
L164.830000 96.130000
" />
<path d="M117.466000 47.870000
L118.796000 47.870000
" />
<path d="M117.466000 49.200000
L117.466000 47.870000
" />
<path d="M120.066000 47.870000
L142.986000 47.870000
" />
<path d="M120.066000 50.530000
L120.066000 47.870000
" />
<path d="M120.066000 50.530000
L142.986000 50.530000
" />
<path d="M142.986000 50.530000
L142.986000 47.870000
" />
<path d="M144.390000 47.870000
L145.720000 47.870000
" />
<path d="M144.390000 49.200000
L144.390000 47.870000
" />
<path d="M146.990000 47.870000
L164.830000 47.870000
" />
<path d="M146.990000 50.530000
L146.990000 47.870000
" />
<path d="M146.990000 50.530000
L164.830000 50.530000
" />
<path d="M164.830000 50.530000
L164.830000 47.870000
" />
<path d="M119.536000 58.886000
L119.536000 88.350000
" />
<path d="M122.584000 64.364000
L122.584000 79.062000
" />
<path d="M122.584000 64.364000
L151.760000 64.364000
" />
<path d="M122.584000 79.062000
L151.760000 79.062000
" />
<path d="M124.044000 91.508000
L122.692000 91.508000
" />
<path d="M125.852000 85.412000
L125.852000 89.700000
" />
<path d="M125.852000 85.412000
L148.492000 85.412000
" />
<path d="M148.492000 85.412000
L148.492000 89.700000
" />
<path d="M150.300000 91.508000
L151.652000 91.508000
" />
<path d="M151.650000 55.728000
L122.694000 55.728000
" />
<path d="M151.760000 64.364000
L151.760000 79.062000
" />
<path d="M154.808000 58.886000
L154.808000 88.350000
" />
<path d="M122.694000 55.728000 A3.158001 3.158001 0.0 0 0 119.536000 58.886000" />
<path d="M119.536000 88.350000 A3.158001 3.158001 0.0 0 0 122.694000 91.508000" />
<path d="M124.046000 91.508000 A1.808001 1.808001 0.0 0 0 125.852000 89.698000" />
<path d="M148.492000 89.698000 A1.808001 1.808001 0.0 0 0 150.298000 91.508000" />
<path d="M154.808000 58.886000 A3.158000 3.158000 0.0 0 0 151.650000 55.728000" />
<path d="M151.650000 91.508000 A3.158000 3.158000 0.0 0 0 154.808000 88.350000" />
</g> 
</svg>
