<?xml version="1.0" standalone="no"?>
 <!DOCTYPE svg PUBLIC "-//W3C//DTD SVG 1.1//EN" 
 "http://www.w3.org/Graphics/SVG/1.1/DTD/svg11.dtd"> 
<svg
  xmlns:svg="http://www.w3.org/2000/svg"
  xmlns="http://www.w3.org/2000/svg"
  xmlns:xlink="http://www.w3.org/1999/xlink"
  xmlns:inkscape="http://www.inkscape.org/namespaces/inkscape"
  version="1.1"
  width="7.073cm" height="5.549cm" viewBox="98.925 45.585 70.73 55.49">
<title>SVG Image created as Arduino_Uno-B_Cu.svg date 2026-05-06T17:51:42 </title>
  <desc>Image generated by PCBNEW </desc>
<g style="fill:#000000; fill-opacity:1.000000;stroke:#000000; stroke-opacity:1.000000;
stroke-linecap:round; stroke-linejoin:round;"
 transform="translate(0 0) scale(1 1)">
<path style="fill:#000000; fill-opacity:1.000000; stroke:none;fill-rule:evenodd;"
d="M 128.790000,98.310000
127.090000,98.310000
127.090000,96.610000
128.790000,96.610000
Z" /> 
</g>
<g style="fill:#000000; fill-opacity:1.000000; stroke:none;">
<circle cx="130.480000" cy="97.460000" r="0.850000" /> 
<circle cx="133.020000" cy="97.460000" r="0.850000" /> 
<circle cx="135.560000" cy="97.460000" r="0.850000" /> 
<circle cx="138.100000" cy="97.460000" r="0.850000" /> 
<circle cx="140.640000" cy="97.460000" r="0.850000" /> 
<circle cx="143.180000" cy="97.460000" r="0.850000" /> 
<circle cx="145.720000" cy="97.460000" r="0.850000" /> 
<path style="fill:#000000; fill-opacity:1.000000; stroke:none;fill-rule:evenodd;"
d="M 151.650000,98.310000
149.950000,98.310000
149.950000,96.610000
151.650000,96.610000
Z" /> 
<circle cx="153.340000" cy="97.460000" r="0.850000" /> 
<circle cx="155.880000" cy="97.460000" r="0.850000" /> 
<circle cx="158.420000" cy="97.460000" r="0.850000" /> 
<circle cx="160.960000" cy="97.460000" r="0.850000" /> 
<circle cx="163.500000" cy="97.460000" r="0.850000" /> 
<path style="fill:#000000; fill-opacity:1.000000; stroke:none;fill-rule:evenodd;"
d="M 119.646000,50.050000
117.946000,50.050000
117.946000,48.350000
119.646000,48.350000
Z" /> 
<circle cx="121.336000" cy="49.200000" r="0.850000" /> 
<circle cx="123.876000" cy="49.200000" r="0.850000" /> 
<circle cx="126.416000" cy="49.200000" r="0.850000" /> 
<circle cx="128.956000" cy="49.200000" r="0.850000" /> 
<circle cx="131.496000" cy="49.200000" r="0.850000" /> 
<circle cx="134.036000" cy="49.200000" r="0.850000" /> 
<circle cx="136.576000" cy="49.200000" r="0.850000" /> 
<circle cx="139.116000" cy="49.200000" r="0.850000" /> 
<circle cx="141.656000" cy="49.200000" r="0.850000" /> 
<path style="fill:#000000; fill-opacity:1.000000; stroke:none;fill-rule:evenodd;"
d="M 146.570000,50.050000
144.870000,50.050000
144.870000,48.350000
146.570000,48.350000
Z" /> 
<circle cx="148.260000" cy="49.200000" r="0.850000" /> 
<circle cx="150.800000" cy="49.200000" r="0.850000" /> 
<circle cx="153.340000" cy="49.200000" r="0.850000" /> 
<circle cx="155.880000" cy="49.200000" r="0.850000" /> 
<circle cx="158.420000" cy="49.200000" r="0.850000" /> 
<circle cx="160.960000" cy="49.200000" r="0.850000" /> 
<circle cx="163.500000" cy="49.200000" r="0.850000" /> 
<path style="fill:#000000; fill-opacity:1.000000; stroke:none;fill-rule:evenodd;"
d="M 127.432000,59.736000
127.432000,58.036000
129.132000,58.036000
129.132000,59.736000
Z" /> 
<circle cx="130.822000" cy="58.886000" r="0.850000" /> 
<circle cx="133.362000" cy="58.886000" r="0.850000" /> 
<circle cx="135.902000" cy="58.886000" r="0.850000" /> 
<circle cx="138.442000" cy="58.886000" r="0.850000" /> 
<circle cx="140.982000" cy="58.886000" r="0.850000" /> 
<circle cx="143.522000" cy="58.886000" r="0.850000" /> 
<circle cx="146.062000" cy="58.886000" r="0.850000" /> 
</g> 
</svg>
